<svg width="133" height="30" viewBox="0 0 133 30" fill="none"
	xmlns="http://www.w3.org/2000/svg">
	<g clip-path="url(#clip0_46_2441)">
		<path fill-rule="evenodd" clip-rule="evenodd" d="M3.5 0C1.567 0 0 1.567 0 3.5V26C0 27.933 1.567 29.5 3.5 29.5H26C27.933 29.5 29.5 27.933 29.5 26V3.5C29.5 1.567 27.933 0 26 0H3.5ZM8.92934 12.9236V5.14041L4.76172 5.13965V24.2268H8.92934V16.1037L14.7255 24.2292H19.7074L12.5557 14.514L19.6581 5.14041H14.6762L8.92934 12.9236ZM25.9982 24.2431H21.0155L13.4688 14.5063L20.967 5.15596L25.9497 5.14667L18.848 14.5249L25.9982 24.2431Z" fill="#651947"/>
		<path d="M40.7614 5.19221V12.9684L46.502 5.19221H51.48L44.3838 14.5573L51.5293 24.2639H46.5513L40.7629 16.1462V24.2639H36.5977V5.19141L40.7614 5.19221Z" fill="#651947"/>
		<path d="M61.4391 10.6948H65.627V24.2646H62.7939L61.9076 22.4305C61.1677 23.7989 59.8128 24.8018 57.3708 24.8018C52.787 24.8018 51.9258 21.5254 51.9258 18.6643V10.6941H56.0903V18.4213C56.0903 19.9613 56.4814 21.624 58.7756 21.624C61.0699 21.624 61.4352 19.9163 61.4352 18.3716L61.4391 10.6948Z" fill="#651947"/>
		<path d="M76.7509 10.2788V13.8494C76.2327 13.6911 75.6903 13.6249 75.1489 13.6538C73.5227 13.6538 71.9215 14.8026 71.9215 17.2966V24.2647H67.7578V10.694H70.5667L71.4272 12.8217C71.7675 12.0264 72.3375 11.3489 73.0652 10.8745C73.7929 10.4002 74.6459 10.1502 75.5166 10.1561C75.931 10.1381 76.3459 10.1795 76.7485 10.2788H76.7509Z" fill="#651947"/>
		<path d="M84.2021 24.9003C82.0682 24.9964 79.9412 24.5944 77.9922 23.7267V20.3269C79.7397 21.274 81.6927 21.786 83.6836 21.8188C85.1377 21.8188 86.343 21.3049 86.343 20.4487C86.343 19.4467 85.1361 19.2262 82.8693 18.6394C78.7549 17.5387 78.0399 15.876 78.0399 14.409C78.0399 11.6216 80.1581 10.0816 84.0027 10.0816C85.9218 10.0246 87.8303 10.3832 89.5955 11.1326V14.3151C88.0067 13.5104 86.254 13.0756 84.4705 13.0437C82.9678 13.0437 81.933 13.4589 81.933 14.3888C81.933 15.3909 83.362 15.4887 86.0004 16.2719C89.3764 17.2251 90.1641 18.8148 90.1641 20.3548C90.1641 23.3867 87.7495 24.9035 84.2014 24.9035L84.2021 24.9003Z" fill="#651947"/>
		<path d="M96.0036 5.19241V8.73816H91.8399V5.19241H96.0036ZM96.0036 10.6942V24.2641H91.8399V10.6942H96.0036Z" fill="#651947"/>
		<path d="M100.524 20.3773C100.813 20.3631 101.103 20.4088 101.373 20.5116C101.644 20.6143 101.89 20.7719 102.096 20.9742C102.302 21.1765 102.464 21.4191 102.57 21.6867C102.676 21.9542 102.725 22.2408 102.714 22.5282C102.719 22.8141 102.666 23.0981 102.558 23.363C102.449 23.6279 102.288 23.8682 102.083 24.0694C101.878 24.2706 101.635 24.4285 101.367 24.5336C101.099 24.6386 100.812 24.6887 100.524 24.6806C99.9488 24.6806 99.3973 24.454 98.9907 24.0504C98.5841 23.6469 98.3556 23.0996 98.3556 22.529C98.3556 21.9583 98.5841 21.411 98.9907 21.0075C99.3973 20.604 99.9488 20.3773 100.524 20.3773Z" fill="#651947"/>
		<path d="M133 18.6177H123.44C123.589 20.3051 124.301 21.6014 127.753 21.6014C129.364 21.6182 130.963 21.3193 132.458 20.722V23.8757C130.528 24.5052 128.503 24.8026 126.471 24.7552C120.804 24.7552 119.226 21.4051 119.226 17.4207C119.226 13.4364 120.803 10.1095 126.273 10.1095C131.743 10.1095 133 13.3378 133 17.4448V18.6177ZM123.416 16.1734H129.131C128.984 14.3632 128.392 12.9699 126.248 12.9699C124.228 12.9699 123.564 14.4121 123.416 16.1734Z" fill="#651947"/>
		<path d="M117.989 17.6932H117.985C117.985 17.6552 117.985 17.6156 117.98 17.5783C117.949 13.3867 116.534 10.1072 110.995 10.1072C105.456 10.1072 103.942 13.046 103.705 16.7874L103.672 16.7928C103.665 16.9721 103.66 17.1522 103.66 17.3361C103.66 17.5868 103.668 17.836 103.683 18.0844C103.687 18.2342 103.692 18.3825 103.701 18.5292H103.717C104.006 21.4928 105.47 24.0846 109.451 24.0846C110.271 24.142 111.093 24.0108 111.854 23.7012C112.615 23.3915 113.293 22.9117 113.837 22.2992V22.9109C113.837 26.2122 110.904 26.6764 108.934 26.6764C107.552 26.6953 106.179 26.4458 104.893 25.942V29.3411C106.593 29.8064 108.352 30.0291 110.116 30.0024C112.653 30.0024 118.025 29.1695 118.025 22.9846L117.99 17.6963L117.989 17.6932ZM110.878 20.7569C108.513 20.7569 107.896 19.0694 107.896 17.333C107.896 15.5966 108.513 13.8858 110.878 13.8858C113.244 13.8858 113.835 15.5244 113.835 17.333C113.835 19.1416 113.194 20.7569 110.878 20.7569Z" fill="#651947"/>
	</g>
	<defs>
		<clipPath id="clip0_46_2441">
			<rect width="133" height="30" fill="white"/>
		</clipPath>
	</defs>
</svg>
