<?xml version="1.0" encoding="utf-8"?>
<!-- Generator: Adobe Illustrator 25.2.1, SVG Export Plug-In . SVG Version: 6.00 Build 0)  -->
<svg version="1.1" id="Layer_1" xmlns="http://www.w3.org/2000/svg" x="0px" y="0px"
     viewBox="0 0 337.22 38.55" style="enable-background:new 0 0 337.22 38.55;" xml:space="preserve">
<style type="text/css">
	.st0 {
    fill: rgb(0,123,255);;
  }
</style>
  <g>
	<g>
		<path class="st0" d="M84.36,0.54c0.62,0,0.94,0.32,0.94,0.95v4.34c0,0.22-0.04,0.41-0.11,0.58c-0.07,0.17-0.14,0.3-0.21,0.39
			L65.06,32.11h19.22c0.62,0,0.94,0.31,0.94,0.92v5.26c0,0.6-0.31,0.89-0.94,0.89H55.62c-0.62,0-0.94-0.3-0.94-0.89v-4.47
			c0-0.13,0.02-0.27,0.07-0.42c0.04-0.15,0.14-0.32,0.28-0.5l19.71-25.2H55.89c-0.66,0-0.99-0.32-0.99-0.95V1.49
			c0-0.63,0.33-0.95,0.99-0.95H84.36z"/>
    <path class="st0" d="M93.11,1.6c0-0.69,0.33-1.03,0.99-1.03h25.08c0.7,0,1.04,0.34,1.04,1.03v5.04c0,0.69-0.35,1.03-1.04,1.03
			h-18.58v7.88h14.17c0.36,0,0.64,0.09,0.84,0.26c0.2,0.17,0.31,0.44,0.31,0.8v4.93c0,0.69-0.38,1.03-1.15,1.03h-14.17v9.54h19.06
			c0.71,0,1.07,0.34,1.07,1.03v5.01c0,0.69-0.36,1.03-1.07,1.03H94.1c-0.66,0-0.99-0.34-0.99-1.03V1.6z"/>
    <path class="st0" d="M126.88,1.6c0-0.27,0.08-0.51,0.23-0.72c0.15-0.21,0.41-0.31,0.76-0.31h16.31c1.76,0,3.39,0.35,4.87,1.06
			c1.48,0.7,2.75,1.64,3.82,2.82c1.07,1.17,1.9,2.52,2.5,4.05c0.6,1.53,0.9,3.11,0.9,4.76c0,1.08-0.16,2.15-0.47,3.2
			c-0.31,1.05-0.76,2.04-1.34,2.97c-0.58,0.93-1.27,1.78-2.06,2.56c-0.79,0.78-1.67,1.45-2.63,2.03l7.01,14.06
			c0.12,0.25,0.12,0.5,0,0.75c-0.12,0.24-0.35,0.37-0.67,0.37h-6.63c-0.29,0-0.51-0.06-0.68-0.19c-0.17-0.13-0.34-0.37-0.52-0.73
			l-6.1-12.44h-7.81v12.33c0,0.69-0.34,1.03-1.02,1.03h-5.48c-0.66,0-0.99-0.34-0.99-1.03V1.6z M134.36,7.02v12.17h7.99
			c0.89,0,1.72-0.16,2.49-0.47c0.77-0.32,1.43-0.75,1.98-1.3c0.55-0.55,0.98-1.2,1.3-1.94c0.31-0.74,0.47-1.53,0.47-2.36
			c0-0.83-0.16-1.62-0.47-2.36c-0.31-0.74-0.74-1.39-1.3-1.94c-0.55-0.55-1.21-0.99-1.98-1.31c-0.77-0.33-1.6-0.49-2.49-0.49H134.36
			z"/>
    <path class="st0" d="M162.53,12.12c1.02-2.41,2.43-4.52,4.21-6.31c1.78-1.8,3.86-3.21,6.24-4.25c2.38-1.04,4.92-1.56,7.63-1.56
			c2.71,0,5.25,0.52,7.63,1.56c2.38,1.04,4.45,2.46,6.22,4.25c1.76,1.8,3.15,3.9,4.17,6.31c1.02,2.41,1.52,4.99,1.52,7.74
			c0,2.75-0.51,5.32-1.52,7.74c-1.02,2.41-2.41,4.51-4.17,6.3c-1.76,1.79-3.84,3.2-6.22,4.24c-2.38,1.04-4.92,1.56-7.63,1.56
			c-2.71,0-5.25-0.52-7.63-1.56c-2.38-1.04-4.46-2.45-6.24-4.24c-1.78-1.79-3.19-3.89-4.21-6.3c-1.03-2.41-1.54-4.99-1.54-7.74
			C160.99,17.12,161.5,14.54,162.53,12.12z M169.43,24.78c0.61,1.53,1.47,2.85,2.55,3.98c1.09,1.13,2.37,2.02,3.84,2.67
			c1.47,0.65,3.07,0.98,4.8,0.98c1.73,0,3.33-0.32,4.8-0.98c1.47-0.65,2.74-1.54,3.82-2.67c1.08-1.13,1.92-2.46,2.53-3.98
			c0.61-1.53,0.91-3.17,0.91-4.92s-0.3-3.39-0.91-4.92c-0.61-1.53-1.45-2.86-2.53-4c-1.08-1.14-2.35-2.03-3.82-2.68
			c-1.47-0.65-3.07-0.98-4.8-0.98c-1.73,0-3.33,0.33-4.8,0.98c-1.47,0.65-2.75,1.54-3.84,2.68c-1.09,1.14-1.94,2.47-2.55,4
			c-0.61,1.53-0.92,3.17-0.92,4.92S168.81,23.25,169.43,24.78z"/>
    <path class="st0" d="M206.9,1.57c0-0.69,0.33-1.03,0.99-1.03h16.55c1.46,0,2.83,0.28,4.09,0.84c1.27,0.56,2.37,1.32,3.3,2.29
			c0.94,0.97,1.67,2.1,2.21,3.41c0.53,1.31,0.8,2.72,0.8,4.24c0,1.48-0.24,2.84-0.72,4.06c-0.48,1.23-1.21,2.28-2.19,3.14
			c0.73,0.49,1.38,1.07,1.95,1.76c0.57,0.69,1.06,1.44,1.47,2.25c0.41,0.81,0.72,1.68,0.94,2.6c0.21,0.92,0.32,1.86,0.32,2.82
			c0,1.5-0.27,2.93-0.82,4.28c-0.54,1.35-1.29,2.55-2.23,3.58c-0.94,1.03-2.05,1.85-3.32,2.45c-1.27,0.61-2.63,0.91-4.09,0.91
			h-18.26c-0.66,0-0.99-0.34-0.99-1.03V1.57z M214.39,6.83v9.4h8.07c1.5,0,2.7-0.42,3.6-1.26c0.9-0.84,1.35-1.99,1.35-3.45
			c0-0.7-0.12-1.35-0.35-1.92c-0.23-0.58-0.56-1.07-0.99-1.48c-0.43-0.41-0.94-0.72-1.55-0.95c-0.61-0.23-1.27-0.34-2.01-0.34
			H214.39z M214.39,22.22v10.62h9.73c0.78,0,1.48-0.15,2.09-0.46c0.61-0.31,1.11-0.7,1.52-1.19c0.41-0.49,0.72-1.04,0.92-1.65
			c0.2-0.61,0.31-1.23,0.31-1.84c0-0.78-0.14-1.5-0.41-2.17c-0.28-0.67-0.64-1.25-1.1-1.73s-0.98-0.87-1.58-1.15
			c-0.6-0.28-1.22-0.42-1.86-0.42H214.39z"/>
    <path class="st0" d="M251.44,22.92L239.22,1.71c-0.2-0.36-0.22-0.65-0.07-0.85c0.15-0.21,0.39-0.31,0.71-0.31h6.31
			c0.3,0,0.55,0.07,0.74,0.22c0.19,0.14,0.37,0.39,0.55,0.73l7.75,15.17l7.73-15.15c0.32-0.63,0.74-0.95,1.26-0.95h6.39
			c0.32,0,0.55,0.1,0.7,0.31c0.14,0.21,0.13,0.49-0.03,0.85l-12.3,21.16v15.2c0,0.72-0.33,1.08-0.99,1.08h-5.51
			c-0.68,0-1.02-0.36-1.02-1.08V22.92z"/>
    <path class="st0" d="M274.09,1.57c0-0.69,0.34-1.03,1.02-1.03h27.46c0.66,0,0.99,0.34,0.99,1.03v4.9c0,0.7-0.33,1.06-0.99,1.06
			h-10.11v30.62c0,0.69-0.34,1.03-1.02,1.03h-5.51c-0.68,0-1.02-0.34-1.02-1.03V7.53h-9.81c-0.68,0-1.02-0.35-1.02-1.06V1.57z"/>
    <path class="st0" d="M309.6,1.6c0-0.69,0.33-1.03,0.99-1.03h25.08c0.7,0,1.04,0.34,1.04,1.03v5.04c0,0.69-0.35,1.03-1.04,1.03
			h-18.58v7.88h14.17c0.36,0,0.64,0.09,0.84,0.26c0.2,0.17,0.31,0.44,0.31,0.8v4.93c0,0.69-0.38,1.03-1.15,1.03h-14.17v9.54h19.06
			c0.71,0,1.07,0.34,1.07,1.03v5.01c0,0.69-0.36,1.03-1.07,1.03h-25.56c-0.66,0-0.99-0.34-0.99-1.03V1.6z"/>
	</g>
    <g>
		<path class="st0" d="M27.05,0.02H9.14c-0.06,0-0.12,0-0.18,0c-0.11,0-0.21,0.01-0.33,0.02C8.53,0.05,8.41,0.06,8.3,0.08
			C8.07,0.11,7.83,0.15,7.59,0.21c0,0-0.01,0-0.01,0c-1.35,0.36-2.5,1.19-3.23,2.3C4.05,3.04,4.1,2.92,3.73,3.82
			C3.65,4.08,3.59,4.34,3.56,4.6L3.51,5.77L3.5,5.9v6.28c0,2.15-0.74,4.14-2,5.75c-0.44,0.57-0.94,1.09-1.5,1.55
			c0.54,0.45,1.03,0.95,1.47,1.5c1.28,1.62,2.03,3.62,2.03,5.79v7.18c0,1.99,1.27,3.81,3.07,4.61l0.21,0
			c0.9-0.11,1.65-0.27,2.44-0.74c0.51-0.31,0.85-0.72,1.17-1.22c0.45-0.71,0.87-1.5,1.27-2.24c0.18-0.33,0.37-0.63,0.55-0.96
			l-1.55,0c-0.05,0-0.1,0-0.14-0.01c-0.85-0.07-1.52-0.74-1.52-1.57v-7.4c0-1.99-0.95-3.77-2.44-4.96c1.49-1.19,2.44-2.97,2.44-4.96
			V7.38c0-0.65,0.42-1.21,1.02-1.45c0.2-0.08,0.42-0.12,0.65-0.12c2.28,0,4.55,0,6.83,0c1.12,0,2.24,0,3.35,0.01
			c1.76,0,3.42-0.47,4.56-1.84c1.03-1.25,1.88-2.65,2.85-3.95L27.05,0.02z"/>
      <path class="st0" d="M46,17.91c-1.26-1.61-2-3.6-2-5.75V5.23c0-0.06,0-0.12,0-0.18c-0.06-1.68-0.98-3.3-2.4-4.24
			C40.89,0.34,40.06,0.06,39.2,0c-0.93-0.06-1.79,0.4-2.43,1.05c-0.63,0.63-1.16,1.55-1.57,2.33l-1.38,2.44l3.04-0.03
			c0.88,0,1.61,0.65,1.66,1.47c0,0.03,0,0.07,0,0.11v7.11c0,1.99,0.95,3.77,2.44,4.96c-1.49,1.19-2.44,2.98-2.44,4.97v7.4
			c0,0.67-0.44,1.24-1.06,1.47c-0.3,0.11-0.63,0.1-0.95,0.1c-0.38,0.01-0.76,0.01-1.15,0.01c-2.46,0-4.92-0.02-7.38-0.01
			c-0.31,0-0.62,0-0.94,0c-0.74,0-1.49,0.04-2.21,0.22c-0.52,0.13-1.04,0.3-1.49,0.57c-0.97,0.57-1.59,1.57-2.2,2.45
			c-0.6,0.86-1.2,1.72-1.83,2.56c1.99,0,3.98,0,5.97,0c3.35,0,6.69,0,10.04,0c2.62,0,5.35,0.21,7.28-1.87
			c1.64-1.77,1.41-3.99,1.41-6.17c0-1.46,0-2.91,0-4.37c0,0,0,0,0-0.01c0-2.17,0.76-4.18,2.03-5.8c0.43-0.55,0.92-1.05,1.47-1.5
			C46.94,19,46.44,18.48,46,17.91z"/>
      <path class="st0" d="M38.34,0.02c-1.37,0-2.75,0.01-4.12,0.03c-1.16,0-2.67-0.01-3.5,0.94c-0.36,0.41-0.58,0.88-0.83,1.36
			c-0.26,0.5-0.53,1-0.8,1.5c-0.72,1.31-1.47,2.6-2.21,3.89c-0.45,0.79-0.91,1.59-1.36,2.38c-0.58,1.01-1.15,2.02-1.73,3.02
			c-0.66,1.15-1.31,2.29-1.97,3.44c-0.69,1.21-1.38,2.42-2.08,3.63c-0.68,1.2-1.37,2.39-2.05,3.59c-0.63,1.11-1.27,2.22-1.9,3.32
			c-0.54,0.94-1.08,1.89-1.62,2.83c-0.4,0.7-0.8,1.41-1.21,2.11c-0.22,0.39-0.44,0.77-0.66,1.16c-0.03,0.05-0.06,0.1-0.09,0.15
			l-0.55,0.96c-0.1,0.23-1.25,2.22-1.39,2.43c-0.73,1.1-2.09,1.71-3.66,1.77H6.58c0.7,0.35,1.48,0.57,2.32,0.62c0,0,0.01,0,0.01,0
			l1.16,0.01h1.48c2.77-0.05,3.42-0.47,4.42-2.43l1.94-3.36L33.39,6.6c0.73-1.3,1.33-2.35,2.1-3.7C36.21,1.63,37.76,0.4,39.2,0
			C39.13,0,38.41,0.02,38.34,0.02z"/>
	</g>
</g>
</svg>
