<svg id="Layer_1" data-name="Layer 1" xmlns="http://www.w3.org/2000/svg" xmlns:xlink="http://www.w3.org/1999/xlink" viewBox="0 0 94.77 79.51"><defs><style>.cls-1{fill:url(#linear-gradient);}.cls-2{fill:url(#linear-gradient-2);}.cls-3{fill:url(#linear-gradient-3);}</style><linearGradient id="linear-gradient" x1="228.7" y1="169.55" x2="151.63" y2="143.86" gradientUnits="userSpaceOnUse"><stop offset="0" stop-color="#175dff"/><stop offset="0.34" stop-color="#1892ff"/><stop offset="0.6" stop-color="#12c1ff"/><stop offset="0.73" stop-color="#0b89d5"/><stop offset="0.85" stop-color="#055ab1"/><stop offset="0.95" stop-color="#013c9b"/><stop offset="1" stop-color="#003193"/></linearGradient><linearGradient id="linear-gradient-2" x1="122.16" y1="122.43" x2="131.77" y2="173.49" gradientUnits="userSpaceOnUse"><stop offset="0" stop-color="#175dff"/><stop offset="0.31" stop-color="#1871ff"/><stop offset="0.63" stop-color="#15afff"/><stop offset="1" stop-color="#003193"/></linearGradient><linearGradient id="linear-gradient-3" x1="107.47" y1="144.42" x2="171.27" y2="144.42" gradientUnits="userSpaceOnUse"><stop offset="0" stop-color="#175dff"/><stop offset="0.17" stop-color="#1871ff"/><stop offset="0.34" stop-color="#1892ff"/><stop offset="0.54" stop-color="#1871ff"/><stop offset="0.8" stop-color="#12c1ff"/><stop offset="1" stop-color="#10caff"/></linearGradient></defs><path class="cls-1" d="M186.13,141a19.15,19.15,0,0,1-4-11.67V115.26c0-.13,0-.25,0-.37a11,11,0,0,0-4.78-8.6,9.68,9.68,0,0,0-4.79-1.64,6.42,6.42,0,0,0-4.84,2.12,20.6,20.6,0,0,0-3.14,4.73l-2.76,5,6.06-.06a3.26,3.26,0,0,1,3.32,3,1.62,1.62,0,0,1,0,.22V134a12.94,12.94,0,0,0,4.87,10.07,13,13,0,0,0-4.87,10.08v15a3.21,3.21,0,0,1-2.12,3,6,6,0,0,1-1.89.21c-.76,0-1.52,0-2.29,0-4.9,0-9.81,0-14.72,0h-1.86a18.69,18.69,0,0,0-4.42.45,11.19,11.19,0,0,0-3,1.16c-1.94,1.16-3.17,3.18-4.4,5s-2.4,3.49-3.66,5.19h31.93c5.23,0,10.67.42,14.52-3.78,3.27-3.59,2.81-8.11,2.81-12.53V159h0a19.13,19.13,0,0,1,4.06-11.77,20,20,0,0,1,2.92-3A20.23,20.23,0,0,1,186.13,141Z" transform="translate(-94.36 -104.64)"/><path class="cls-2" d="M148.32,104.68H112.25l-.65,0-.68.08c-.46.06-.93.15-1.41.26h0a11.07,11.07,0,0,0-6.44,4.68,13.37,13.37,0,0,0-1.24,2.66,9.27,9.27,0,0,0-.35,1.58l-.1,2.38v13a19.08,19.08,0,0,1-4,11.67,20.23,20.23,0,0,1-3,3.14,20.54,20.54,0,0,1,2.93,3A19.08,19.08,0,0,1,101.35,159v14.57a10.42,10.42,0,0,0,6.12,9.35h.41a10.94,10.94,0,0,0,4.86-1.51,7.29,7.29,0,0,0,2.33-2.48c.9-1.43,1.73-3,2.53-4.53.36-.67.74-1.29,1.1-1.95h-3.39a3.25,3.25,0,0,1-3-3.18v-15a13,13,0,0,0-4.87-10.07A12.94,12.94,0,0,0,112.27,134V119.62a3.2,3.2,0,0,1,2-2.94,3.5,3.5,0,0,1,1.3-.25c4.54,0,9.08,0,13.62,0h6.69c3.52,0,6.84-1,9.1-3.74,2.06-2.54,3.75-5.38,5.69-8Z" transform="translate(-94.36 -104.64)"/><path class="cls-3" d="M170.83,104.69q-4.11,0-8.22.07c-2.32,0-5.34,0-7,1.9a13.65,13.65,0,0,0-1.66,2.77c-.52,1-1.06,2-1.6,3-1.43,2.66-2.94,5.27-4.42,7.9l-2.71,4.83-3.45,6.13-3.92,7-4.15,7.37L129.63,153l-3.8,6.74-3.23,5.75-2.4,4.28-1.33,2.35-.17.32-1.1,1.95c-.2.47-2.49,4.49-2.77,4.93-1.45,2.23-4.17,3.47-7.31,3.6h0a11.38,11.38,0,0,0,4.63,1.25h0l2.31,0h3c5.53-.1,6.82-1,8.81-4.94l3.86-6.81L161,118c1.46-2.64,2.9-5.27,4.34-7.93s3.09-4.61,6-5.41Z" transform="translate(-94.36 -104.64)"/></svg>